<svg version="1.1" xmlns="http://www.w3.org/2000/svg" viewBox="0 0 340 180" width="260" height="150">
  <defs>
    <linearGradient id="block-shadow" x1="0" y1="0.22" x2="1.15" y2="0.6">
      <stop stop-opacity="0.09"/>
      <stop stop-opacity="0" offset="1"/>
    </linearGradient>
    <linearGradient id="block-drop-shadow" x1="0" y1="0.3" x2="0.8" y2="0.5">
      <stop stop-opacity="0.2"/>
      <stop stop-opacity="0" offset="1"/>
    </linearGradient>
    <symbol id="grass-block">
      <polygon points="84,74 42,90 0,74 0,16 42,0 84,16 " style="fill:#af713b;"/>
      <polygon points="84,28 42,44 0,28 0,16 42,0 84,16 " style="fill:#90bc3c;"/>
      <polygon points="42,90 42,32 84,16 84,74 " style="fill:url(#block-shadow);"/>
      <polygon points="42,90 92,90 134,74 84,74 " style="fill:url(#block-drop-shadow)"/>
    </symbol>
    <symbol id="fox" viewBox="0 0 800 800" style="fill-rule:evenodd;clip-rule:evenodd;stroke-linejoin:round;stroke-miterlimit:2;">
      <g transform="matrix(4.16667,0,0,4.16667,-691.061,-314.639)">
        <g>
          <g transform="matrix(1,0,0,1,-2.771,99.5663)">
            <path d="M270.31,102.141C270.31,102.141 276.769,108.23 283.227,114.318C289.686,120.407 275.932,135.525 275.932,135.525L283.025,135.525C283.025,135.525 297.036,121.237 298.558,119.623C301.603,116.393 299.45,114.364 297.297,112.334C295.144,110.305 293.648,105.601 298.214,100.757C283.565,109.78 270.31,102.141 270.31,102.141Z" style="fill:rgb(76,53,33);fill-rule:nonzero;"/>
          </g>
          <g transform="matrix(1,0,0,1,-2.771,99.5663)">
            <path d="M222.354,84.731C222.354,84.731 225.983,105.018 221.855,115.798C217.37,127.509 205.341,138.005 205.341,138.005L214.246,138.005C214.246,138.005 223.604,133.637 233.449,120.236C241.68,109.031 246.763,97.751 246.763,97.751L222.354,84.731Z" style="fill:rgb(245,172,44);fill-rule:nonzero;"/>
          </g>
          <g transform="matrix(1,0,0,1,-2.771,99.5663)">
            <path d="M220.825,94.174C249.609,113.242 289.391,120.236 291.61,120.236C306.404,120.236 303.442,100.264 303.442,100.264L303.442,78.073L240.968,73.005C240.968,73.005 230.491,78.981 220.825,94.174Z" style="fill:rgb(245,172,44);fill-rule:nonzero;"/>
          </g>
          <g transform="matrix(1,0,0,1,-2.771,99.5663)">
            <path d="M221.591,33.795L179.271,73.588L225.707,74.062L221.591,33.795Z" style="fill:rgb(245,172,44);fill-rule:nonzero;"/>
          </g>
          <g transform="matrix(1,0,0,1,-2.771,99.5663)">
            <path d="M221.591,33.795L260.15,34.417L245.831,61.484C245.831,61.484 233.295,78.667 225.707,74.062C218.119,69.457 181.704,43.916 181.704,43.916L221.591,33.795Z" style="fill:rgb(245,172,44);fill-rule:nonzero;"/>
          </g>
          <g transform="matrix(1,0,0,1,-2.771,99.5663)">
            <path d="M210.692,74.062L236.042,47.392L259.599,36.06C253.081,49.441 232.171,86.353 243.096,98.045C259.474,115.573 294.566,120.236 294.566,120.236C267.577,120.236 236.589,116.662 220.678,96.239C210.05,82.597 210.692,74.062 210.692,74.062Z" style="fill:rgb(253,226,134);fill-rule:nonzero;"/>
          </g>
          <g transform="matrix(1,0,0,1,-2.771,99.5663)">
            <path d="M242.613,54.283C244.547,52.465 244.081,48.813 241.571,46.126C239.06,43.439 235.457,42.735 233.522,44.553C231.587,46.37 232.054,50.022 234.564,52.709C237.074,55.396 240.678,56.101 242.613,54.283Z" style="fill:rgb(76,53,33);fill-rule:nonzero;"/>
          </g>
          <g transform="matrix(1,0,0,1,-2.771,99.5663)">
            <path d="M260.798,36.822C261.433,35.775 261.1,34.41 260.052,33.774C259.004,33.138 257.64,33.472 257.004,34.52C256.368,35.567 256.702,36.932 257.75,37.568C258.797,38.204 260.161,37.87 260.798,36.822Z" style="fill:rgb(76,53,33);fill-rule:nonzero;"/>
          </g>
          <g transform="matrix(1,0,0,1,-2.771,99.5663)">
            <path d="M211.342,54.961L181.689,73.005L209.906,71.943L211.342,54.961Z" style="fill:rgb(254,213,78);fill-rule:nonzero;"/>
          </g>
          <g transform="matrix(1,0,0,1,-2.771,99.5663)">
            <path d="M242.888,84.731C242.888,84.731 245.331,104.636 242.39,115.798C238.881,129.112 227.355,137.988 227.355,137.988L235.198,138.005C235.198,138.005 244.139,133.637 253.984,120.236C262.215,109.031 267.298,97.751 267.298,97.751L242.888,84.731Z" style="fill:rgb(245,172,44);fill-rule:nonzero;"/>
          </g>
          <g transform="matrix(1,0,0,1,-2.771,99.5663)">
            <path d="M239.621,122.895L251.207,123.613C246.187,130.069 242.444,134.004 235.198,138.005L227.355,137.988C233.015,132.902 235.735,129.862 239.621,122.895Z" style="fill:rgb(76,53,33);fill-rule:nonzero;"/>
          </g>
          <g transform="matrix(1,0,0,1,-2.771,99.5663)">
            <path d="M294.566,120.236L312.318,120.236C321.195,120.236 321.195,135.769 321.195,135.769L327.112,135.769L327.112,113.579C327.112,109.14 324.153,109.14 321.195,109.14C318.236,109.14 313.92,106.745 313.92,100.087C309.451,116.702 294.566,120.236 294.566,120.236Z" style="fill:rgb(76,53,33);fill-rule:nonzero;"/>
          </g>
          <g transform="matrix(1,0,0,1,-2.771,99.5663)">
            <path d="M217.507,123.934C214.094,129.115 209.969,133.868 205.341,138.005L214.246,138.005C220.465,134.715 225.583,129.71 230.111,124.402L217.507,123.934Z" style="fill:rgb(76,53,33);fill-rule:nonzero;"/>
          </g>
          <g transform="matrix(1,0,0,1,-2.771,99.5663)">
            <path d="M303.333,89.169L315.168,89.169C338.838,89.169 350.117,72.116 349.979,52.145C349.706,12.599 321.67,7.106 321.67,7.106L306.943,35C306.943,35 322.74,37.576 322.017,58.089C321.35,77.009 303.333,78.074 303.333,78.074L303.333,89.169Z" style="fill:rgb(245,172,44);fill-rule:nonzero;"/>
          </g>
          <g transform="matrix(1,0,0,1,-2.771,99.5663)">
            <path d="M295.692,120.233C285.446,120.412 276.995,112.223 276.816,101.943C276.637,91.664 284.796,83.185 295.042,83.006C305.287,82.828 313.738,91.016 313.917,101.296C314.097,111.576 305.937,120.054 295.692,120.233Z" style="fill:rgb(245,172,44);fill-rule:nonzero;"/>
          </g>
          <g transform="matrix(1,0,0,1,-2.771,99.5663)">
            <path d="M316.604,16.524L329.661,17.958L320.031,8.795L310.182,8.519L316.604,16.524Z" style="fill:rgb(253,226,134);fill-rule:nonzero;"/>
          </g>
          <g transform="matrix(1,0,0,1,-2.771,99.5663)">
            <path d="M321.67,7.106C321.67,7.106 308.846,1.268 296.763,15.168C286.237,27.276 287.303,40.791 287.303,40.791C287.303,40.791 293.507,33.153 306.943,35C313.92,22.276 321.67,7.106 321.67,7.106Z" style="fill:rgb(253,226,134);fill-rule:nonzero;"/>
          </g>
          <g transform="matrix(1,0,0,1,-2.771,99.5663)">
            <path d="M313.232,23.59L324.562,23.458L316.659,15.862L306.809,15.586L313.232,23.59Z" style="fill:rgb(253,226,134);fill-rule:nonzero;"/>
          </g>
        </g>
      </g>
    </symbol>
  </defs>
  <g transform="scale(1.32) translate(-60, -8)">
    <!--<path
          d="M 340,38 V 170 H 230 a 6,6 0 1 1 0,-12 h -88 a 6,6 0 1 1 0,-12 H 87 a 6,6 0 1 1 0,-12 H 59 a 6,6 0 1 1 0,-12 H 19 a 6,6 0 1 1 0,-12 H 35 A 6,6 0 1 1 35,98 H 67 A 6,6 0 1 1 67,86 H 50 a 6,6 0 1 1 0,-12 h 27 a 6,6 0 1 1 0,-12 h 43 a 6,6 0 1 1 0,-12 h 16 a 6,6 0 1 1 0,-12"
          style="fill:#ffebc8"></path>-->
    <use href="#grass-block" x="109" y="12" transform="scale(0.9,0.92)"/>
    <use href="#grass-block" x="218" y="9" transform="scale(0.93333,0.95)"/>
    <polygon points="102,104 200,104 200,120 94,116" style="fill:url(#block-drop-shadow);opacity:0.5"/>
    <use href="#fox" x="18.999" y="18.7" transform="scale(0.68)"/>
    <use href="#grass-block" x="166.60001" y="48"/>
  </g>
</svg>
