<svg version="1.1" xmlns="http://www.w3.org/2000/svg" viewBox="0 0 250 50" width="250" height="50">
  <defs>
    <symbol id="icon">
      <g>
        <path fill="#ff8c2a" d="m15.6772 3.329c-0.0007 0 0 0 0 0-0.086 0.392-0.1531 0.791-0.2051 1.197 0.052-0.406 0.1211-0.806 0.2071-1.199zm-5.9551 4.029c-0.2908 0.309-0.57 0.644-0.8438 0.993 0.2738-0.349 0.5529-0.683 0.8438-0.993zm7.6289 1.141s-0.0001 0 0 0c0.037 0.363 0.1028 0.712 0.1933 1.049-0.091-0.338-0.1545-0.687-0.1914-1.051-0.0003 0 0 0 0 0zm0.1933 1.051c0.1814 0.675 0.4663 1.301 0.8438 1.883-0.3774-0.582-0.6624-1.208-0.8438-1.883zm-8.8847-0.908c-0.1948 0.259-0.3852 0.526-0.5703 0.804 0.1849-0.277 0.3757-0.545 0.5703-0.804zm-0.8184 1.185c-0.1999 0.316-0.3928 0.644-0.5801 0.981 0.1871-0.337 0.3804-0.665 0.5801-0.981zm-0.709 1.205c-0.2299 0.425-0.4492 0.865-0.6582 1.319 0.2089-0.454 0.4284-0.894 0.6582-1.319zm-0.7832 1.604c-0.1688 0.378-0.3307 0.765-0.4844 1.16 0.1536-0.395 0.3156-0.781 0.4844-1.16zm-0.6113 1.498c-0.1502 0.402-0.2919 0.81-0.4258 1.226 0.1336-0.415 0.276-0.825 0.4258-1.226zm-0.5215 1.519c-0.3272 1.056-0.6008 2.15-0.8164 3.272 0.215-1.122 0.4897-2.216 0.8164-3.272zm21.5176 1.309c-0.5447 0.935-0.3283 0.652-0.9434 1.996-0.5288 1.156-1.8195 2.73-3.6543 3.65-2.4102 1.21-4.3378 0.372-5.3261 0.112-0.3837-0.13-0.516-0.131-0.6368-0.131-0.2014 0.21-1.5208 2.24-3 4.98-0.7686 1.43-1.6486 2.99-3.3222 4.26-1.1964 0.908-2.9349 1.425-4.6817 1.365 1.701 4.915 5.1182 9.018 10.8067 10.805 2.7378 0.86 5.6022 0.809 8.5781 0.359 7.7839-1.18 12.8302-8.908 11.3691-16.648-0.9386-4.972-4.4398-9.072-9.1894-10.748zm-22.3535 2.068c-0.102 0.541-0.1895 1.087-0.2637 1.637 0.074-0.55 0.162-1.096 0.2637-1.637zm-0.2774 1.75c-0.2301 1.756-0.3135 3.549-0.2343 5.33-0.08-1.78 0.01-3.574 0.2343-5.33zm-0.2304 5.442c0.028 0.585 0.074 1.168 0.1386 1.748-0.065-0.58-0.1101-1.163-0.1386-1.748zm0.1386 1.748c0.133 1.193 0.3447 2.369 0.6407 3.513-0.296-1.144-0.5073-2.321-0.6407-3.513zm0.6524 3.554c0.1424 0.547 0.3045 1.086 0.4863 1.616-0.1818-0.53-0.3438-1.069-0.4863-1.616z"/>
        <path fill="#ff8126" d="m8.8451 8.392c-0.069 0.09-0.1348 0.186-0.2031 0.277 0.068-0.09 0.1337-0.189 0.2031-0.277zm-0.8008 1.119c-0.099 0.149-0.1932 0.306-0.289 0.461 0.096-0.155 0.1903-0.312 0.289-0.461zm-0.748 1.238c-0.097 0.173-0.1919 0.348-0.2852 0.525 0.093-0.177 0.1884-0.352 0.2852-0.525zm-0.6914 1.34c-0.088 0.185-0.1755 0.369-0.2598 0.558 0.084-0.189 0.1719-0.374 0.2598-0.558zm-0.6465 1.482c-0.07 0.175-0.1405 0.346-0.207 0.524 0.066-0.178 0.1374-0.349 0.207-0.524zm-0.6133 1.694c-0.036 0.112-0.078 0.22-0.1133 0.334 0.035-0.114 0.077-0.222 0.1133-0.334zm18.1914 0.283c-0.8909 1.078-0.5518 2.724-2.9648 3.931-1.6617 0.83-4.0058-1.14-5.8457-0.22-4.1694 2.084-4.6819 12.209-10.4864 10.269 0.217 1.255 0.5189 2.485 0.9278 3.666 1.7474 0.06 3.4868-0.457 4.6836-1.365 1.6736-1.27 2.5536-2.83 3.3222-4.26 1.4792-2.74 2.7986-4.77 3-4.98 0.1208 0 0.2531 0 0.6368 0.131 0.9883 0.26 2.9159 1.098 5.3261-0.112 1.8348-0.92 3.1255-2.494 3.6543-3.65 0.6151-1.344 0.3987-1.061 0.9434-1.996-0.1229-0.04-0.2426-0.09-0.3672-0.133-1.1234-0.366-1.9051-0.774-2.8301-1.281zm-19.1172 3.291c-0.03 0.156-0.056 0.314-0.084 0.471 0.028-0.157 0.054-0.315 0.084-0.471zm-0.2793 1.687c-0.023 0.166-0.042 0.332-0.062 0.498 0.02-0.166 0.039-0.332 0.062-0.498zm-0.1933 1.762c-0.012 0.151-0.025 0.302-0.035 0.453 0.01-0.151 0.023-0.302 0.035-0.453zm-0.096 1.832c0 0.112-0.01 0.224-0.01 0.336 0-0.112 0.01-0.224 0.01-0.336zm0.014 1.848c0 0.08 0 0.165 0.01 0.248 0-0.08 0-0.166-0.01-0.248z"/>
        <path fill="#ffc882" d="m15.676 3.329c-2.461 2.39-4.5969 5.24-5.8476 7.92-0.044-1.27-0.069-2.59-0.1055-3.89-4.391 4.667-6.9072 13.977-5.4961 22.166 5.8177 1.961 6.3273-8.18 10.5-10.266 1.8399-0.92 4.184 1.051 5.8457 0.221 2.413-1.207 2.0739-2.854 2.9648-3.932-0.2638-0.145-0.4868-0.259-0.7968-0.43-3.0256-1.67-5.0935-3.709-5.3887-6.619-0.5927 0.29-0.7653 2.401-0.8223 4.641-1.1185-3.01-1.5415-6.671-0.8535-9.811z"/>
      </g>
    </symbol>
    <symbol id="text">
      <g fill="#374151">
        <path d="m22.784 35.013-6.96-10.16-2.12 2v8.16h-7.28v-27.2h7.28v9.44l10.92-10.04 5.64 4.08-9.24 8.64 11 15.08h-9.24z"/>
        <path d="m52.243 25.413q0 3.16-1.48 5.44-1.44 2.28-4 3.44-2.52 1.16-5.68 1.16-4.88 0-7.88-2.6-2.96-2.64-2.96-7.64 0-3.16 1.44-5.48 1.48-2.36 3.96-3.56 2.52-1.24 5.6-1.24 3.24 0 5.72 1.2t3.88 3.56 1.4 5.72zm-11.08 4.12q1.72 0 2.64-1.04t0.92-3.08q0-2-0.92-3.28-0.88-1.28-2.48-1.28-1.68 0-2.64 1.16-0.92 1.16-0.92 3.2 0 2 0.88 3.16t2.52 1.16z"/>
        <path d="m63.716 16.413v-6.24l-7.28 1v5.24h-3v5.72h3v5.6q0 2.48 1.24 4.24 1.28 1.72 3.36 2.6t4.48 0.88q1.36 0 2.96-0.52 1.64-0.56 2.4-1.2l-2.08-4.96q-1.36 0.76-2.8 0.76-1.04 0-1.68-0.68-0.6-0.72-0.6-1.92v-4.8h5.76l-0.68-5.72h-5.08z"/>
        <path d="m74.08 22.013q1.12-0.48 2.48-0.8 1.4-0.36 2.36-0.36 1.04 0 1.68 0.56 0.68 0.56 0.84 1.68h-2.32q-7.6 0-7.6 5.68 0 3.08 1.84 4.88t5.44 1.8q2.44 0 4.36-2.44l2.08 2h3.52v-12q0-3.76-2.08-5.92t-5.96-2.16q-2.24 0-4.56 0.56-2.32 0.52-4 1.28l1.92 5.24zm3.52 6.64q0-0.68 0.44-1.12 0.48-0.44 1.2-0.44h2.24v1.84q-1.32 1.08-2.56 1.08-0.56 0-0.96-0.36-0.36-0.4-0.36-1z"/>
        <path d="m91.95 33.333q1.56 0.92 4.16 1.56 2.64 0.64 4.76 0.64 3.28 0 5.72-1.04 2.48-1.04 3.8-2.84t1.32-4.12q0-2.08-1.2-3.72-1.16-1.68-2.84-2.88-1.68-1.24-4.2-2.68l-1.44-0.8q-1.44-0.76-2.08-1.2-0.6-0.48-0.6-1.08 0-0.8 0.72-1.36 0.76-0.56 1.96-0.56 1.36 0 2.48 0.24 1.16 0.24 3.28 0.96l2.16-4.92q-1.56-1.04-3.76-1.64-2.16-0.6-4.24-0.6-3.04 0-5.32 1t-3.56 2.8q-1.24 1.76-1.24 4 0 2.12 1.2 3.8t2.72 2.76q1.52 1.04 4.24 2.64l1.24 0.72q1.56 0.92 2.24 1.44 0.72 0.48 0.72 1 0 0.8-0.96 1.48-0.96 0.64-2.56 0.64-1.44 0-3.36-0.52-1.88-0.56-2.96-1.2l-2.4 5.48z"/>
        <path d="m132.525 25.013q0-2.8-1.08-5.08-1.04-2.28-3.12-3.64t-5.08-1.36q-2.96 0-5.36 1.28-2.36 1.24-3.72 3.6t-1.36 5.52q0 3.2 1.48 5.52 1.48 2.28 4.08 3.44 2.64 1.16 6.04 1.16 2.36 0 4.6-0.6 2.28-0.6 3.48-1.48l-2.04-4.92q-2.56 1.32-5.32 1.32-1.8 0-2.92-0.68-1.08-0.72-1.48-1.96h11.8v-2.12zm-12-1.48q-0.04-1.08 0.72-1.92 0.8-0.84 1.8-0.84 1.24 0 1.88 0.88t0.64 1.88h-5.04z"/>
        <path d="m141.613 23.613q1.24-0.96 2.96-1.56t3.16-0.6l-1.48-5.84q-1.52 0-3.32 0.72t-3.2 1.68l-1.76-2.36h-3.64v19.36h7.28v-11.4z"/>
        <path d="m161.835 35.013 7.64-19.4h-7.24l-3.72 10.96-3.88-11.68-6.72 1.92 7.04 18.2h6.88z"/>
        <path d="m188.369 25.013q0-2.8-1.08-5.08-1.04-2.28-3.12-3.64t-5.08-1.36q-2.96 0-5.36 1.28-2.36 1.24-3.72 3.6t-1.36 5.52q0 3.2 1.48 5.52 1.48 2.28 4.08 3.44 2.64 1.16 6.04 1.16 2.36 0 4.6-0.6 2.28-0.6 3.48-1.48l-2.04-4.92q-2.56 1.32-5.32 1.32-1.8 0-2.92-0.68-1.08-0.72-1.48-1.96h11.8v-2.12zm-12-1.48q-0.04-1.08 0.72-1.92 0.8-0.84 1.8-0.84 1.24 0 1.88 0.88t0.64 1.88h-5.04z"/>
        <path d="m197.457 23.613q1.24-0.96 2.96-1.56t3.16-0.6l-1.48-5.84q-1.52 0-3.32 0.72t-3.2 1.68l-1.76-2.36h-3.64v19.36h7.28v-11.4z"/>
      </g>
      <path id="paw" fill="#fd8c29" d="m47.371 8.66a1.05359 1.74199 2.2419 0 1 -1.12 1.699 1.05359 1.74199 2.2419 0 1 -0.985 -1.782 1.05359 1.74199 2.2419 0 1 1.12 -1.698 1.05359 1.74199 2.2419 0 1 0.985 1.781zm7.285 0.05a1.05359 1.74199 2.2419 0 1 -1.12 1.701 1.05359 1.74199 2.2419 0 1 -0.987 -1.783 1.05359 1.74199 2.2419 0 1 1.123 -1.699 1.05359 1.74199 2.2419 0 1 0.984 1.781zm-2.163-2.46a1.05359 1.74199 2.2419 0 1 -1.123 1.699 1.05359 1.74199 2.2419 0 1 -0.983 -1.782 1.05359 1.74199 2.2419 0 1 1.121 -1.699 1.05359 1.74199 2.2419 0 1 0.985 1.782zm-6.042 6.963c-0.635-1.097 1.783-4.61 3.486-4.543 1.7 0.06 4.075 3.547 2.973 4.795-0.773 0.88-1.943-0.175-3.152-0.222-1.21-0.04-2.518 1.332-3.307-0.03zm3.239-6.935a1.05359 1.74199 2.2419 0 1 -1.121 1.698 1.05359 1.74199 2.2419 0 1 -0.985 -1.781 1.05359 1.74199 2.2419 0 1 1.121 -1.7 1.05359 1.74199 2.2419 0 1 0.985 1.783z"/>
      <use href="#paw" transform="translate(90.338,0)"/>
    </symbol>
  </defs>
  <use href="#icon" x="0" y="0"/>
  <use href="#text" x="40" y="8"/>
</svg>
